<?xml version="1.0" encoding="UTF-8"?>
<svg id="Layer_2" data-name="Layer 2" xmlns="http://www.w3.org/2000/svg" viewBox="0 0 66.72 67.51">
  <defs>
    <style>
      .cls-1 {
        fill: #2e6399;
      }

      .cls-2 {
        fill: #fff;
      }

      .cls-3 {
        fill: #257d70;
      }

      .cls-4 {
        fill: #933;
      }
    </style>
  </defs>
  <g id="Layer_7" data-name="Layer 7">
    <path class="cls-2" d="M50.27,28.72V9.76L33.36,0l-16.91,9.76v18.96L0,38.22v19.53l16.91,9.76,16.45-9.5,16.45,9.5,16.91-9.76v-19.53l-16.45-9.5ZM48.27,28.13l-.31.18-.12-17.64.43.25v17.22ZM42.4,7.53l-9.77-4.06-9.54,4.77,10.27-5.93,9.04,5.22ZM18.62,10.82l-.17,2.08v-1.99l.17-.1ZM2,39.37l.16-.09,1.23,18.11-1.39-.8v-17.22ZM16.91,65.2l-2.95-1.7,2.15,1.15,14.35-8.52h1.37v.47l-14.91,8.61ZM64.72,56.59l-14.91,8.61-14.91-8.61v-.47h.74l14.15,8.53,14.77-8.28v-17.08l.16.09v17.22Z"/>
    <g>
      <g>
        <path class="cls-1" d="M53.47,37.67c-.23.01-.35.15-.33.19.02.05.22.23.37.23s.22-.06.47-.06.26-.14.32-.31c.06-.17-.41-.08-.83-.06Z"/>
        <path class="cls-1" d="M48.03,39.35c-.34.25-.43.13-.55.25,0,0-.01.08.08.24.09.15.78-.34.93-.48s-.11-.25-.46,0Z"/>
        <path class="cls-1" d="M38.62,49.07c.28.02.51-.22,1.26,0,.75.22,1.47.52,1.65.72s0,.77.22,1.1c.22.33.84,1.14,1.26,1.41.42.28.24.1.68.64s.55,1.22.69,1.47c.14.24.14.76.5,1.37s1.21,1.88,1.56,2.04c.35.16.65.01.86.19s.05-.14-.19-.42c-.23-.28-.5-1.05-.52-1.34-.02-.29-.37-.31-.37-.5s.27-.4.45-.41.03-.19.03-.37.24-.13.24-.4-.02-.41.08-.63c.1-.22-.01-.27-.01-.61s.33-.5.48-.52.59-.04.4-.67-.31-.94-.1-1.25c.21-.3.12-.76-.85-.98s-1.49-.17-1.62-.23c-.13-.06-.21-.49-.59-.54s-.86-.02-.98-.12c-.12-.09-.35-.43-.55-.43s-.29.2-.57.2-.78.02-.87.2c-.09.17-.19.36-.47.16-.28-.2-.03-.43-.36-.64s-.5-.46-.51-.56c-.01-.1-.3.03-.31.23s-.34.23-.5.16-.19-.53-.19-.78.58-.61.89-.56c.3.05.44.24.55.31.1.07.33.16.37.02.05-.14-.27-.37-.19-.63.08-.26.49-.61.49-.61,0,0-.17-.75.48-1.15.65-.41,1.01-.48,1.09-.66.08-.19-.24-.43-.12-.47.13-.03.33.37.58.06.26-.31.55-.09.31-.52s-.49-.44-.58-.7c-.09-.26.01-.38-.16-.38s-.15.13-.3.13-.42,0-.48-.07c-.06-.07-.14-.06-.26-.06s-.3.37-.37.69c-.07.31-.22.22-.22.45s.03.36-.22.36-.15-.16-.29-.19c-.14-.02-.21.07-.38-.02-.17-.09-.2-.23-.2-.23,0,0,1.42-1.36,1.5-1.71.08-.35.09-.43.2-.42.1.01.37.08.37.16s-.29.14-.26.38c.03.24.99.35,1.01.12.02-.23.06-.38.19-.48.13-.09.29-.45.06-.54-.23-.08-.66-.05-.75-.23s.17-.77.49-1.04c.31-.27.77-.6.65-.3-.12.3-.21.5.15.24.36-.26.45.24.45.76s-.02,1.37.4,1.28c.42-.09.66-1.27.95-1.46.29-.19,1.27-.58,1.64-1.14.37-.56.16-.49.4-.85s.35-.69.44-.84.21-.21-.07-.15c-.28.06-.36.08-.69.08s-1.96,1.22-2.49,1.22-.66-.22-1.26.21-1.76.92-2.04,1.61c-.28.69-.28,1.23-.51,1.05-.23-.19-.35-.22-.38-.1-.03.12.06.85-.24.99-.3.14-.56.27-.61.15-.05-.12.3-.45.24-.59-.03-.08-.11-.12-.17-.15-1.2,1.83-1.9,4.01-1.9,6.35,0,.24,0,.47.02.71.07.15.21.37.4.38Z"/>
        <path class="cls-1" d="M57.54,39.34c-.38,0-.57.23-.61.23s-.12-.26-.19-.25c-.08.02.1.76-.62.68-.2-.02-.09-.13.04-.17.13-.04.14-.13.14-.24s.04-.28-.15-.28-.6.02-.75,0c-.15-.02-.33-.29-.65-.3-.32,0-.81.18-1.26.58-.45.4-.89.68-.89.82s.12.39.58.38c.46,0,.54.22.65.24s.59.03.45-.35c-.15-.38.15-.82.31-.75.15.08-.24.3-.14.44.1.14.24.25.39.27.15.02.05.34-.15.35-.19,0-.15.64-.5.58-.35-.05-.48-.08-.61-.25-.13-.17-.15-.3-.34-.3s-.13.41-.33.5c-.2.09-.29.15-.42.31-.12.15-.21.12-.21,0s-.17-.36-.24-.42c-.07-.05-.2-.38-.21-.59,0-.22-.32-.12-.47-.05-.15.07,0,.25-.23.32-.24.07-.43.23-.43.37s.29.23.49.23,0-.55.05-.58c.05-.03.2.2.28.22.08.02-.32.38-.02.54.3.16.72-.04.73.07.02.11-.05.21-.35.21s-.54.14-.41.22c.13.08.65.13.26.26-.38.13-.78.32-.94.28-.15-.03.02.37-.06.51-.08.14-.25.33-.06.46.19.13.82.24,1.14.07s.72-.97,1.24-.97.87.38.89.58c.02.2.07.36-.03.43-.1.07-.05.39.28.09.32-.3.51-.14.46-.35-.05-.22-.85-.64-.57-.64s.92.71.93.78c.02.08.32.28.35.11.04-.17.27-.31.35-.09.08.22.26.55.55.54.28,0,.53-.38.69,0,.16.38-.04.73-.52.73s-.89-.21-1.15-.31-.34.22-.65.16c-.32-.05-.8-.1-.97-.49-.17-.39-.36-.52-.53-.52s-.32.33-.93.27c-.62-.06-.76-.26-.91-.18-.15.08-.36.44-1.05.99-.68.55-1.02.92-1.02,1.23s.15.18-.02.55c-.17.38-.28.78.07.99.35.2.45,1.09,1.48,1.09s1.35-.4,2.04-.12c.68.28.67.05.75.75.08.7.41.97.41,1.7s-.48.78-.21,1.49c.27.71-.02.91.28,1.24.3.33.38.85.38,1.04s.53.11,1.19-.38c.65-.48,1.21-1.1,1.21-1.52s.03-.75.24-.99c.21-.24.72.14.72-.86s-.22-1.35.56-2.01c.78-.65.83-1.15.83-1.3s-.3-.11-.47-.11-.37.17-.98-.55c-.61-.72-.82-1.23-.75-1.63.07-.4.4.29.62.62.22.33.84,1.11.86,1.19.02.08-.17.42.47,0,.64-.43,1.33-.91,1.22-1.19-.11-.28-.22-.12-.58-.15-.36-.02-.62,0-.74-.33-.12-.33-.16-.48.05-.46.21.02.21.56.74.58s1.08-.07,1.31.12c.15.12.24.29.42.38-.38-2.8-1.75-5.28-3.76-7.08,0,0-.01,0-.02,0Z"/>
        <path class="cls-1" d="M40.93,40.61s.34-.03.43,0c.09.03.21.13.21-.07s.03-.34-.27-.3c-.11.02-.19.07-.26.13-.02.03-.04.05-.07.08-.06.08-.07.16-.04.16Z"/>
        <path class="cls-1" d="M49.81,29.61l-15.91,9.19v18.37l15.91,9.19,15.91-9.19v-18.37l-15.91-9.19ZM49.81,60.38c-6.84,0-12.4-5.56-12.4-12.4s5.56-12.4,12.4-12.4,12.4,5.56,12.4,12.4-5.56,12.4-12.4,12.4Z"/>
        <path class="cls-1" d="M40.86,40.92c.11-.23-.16.07-.24.07-.02,0-.06.02-.11.05-.08.11-.16.22-.24.34,0,.02,0,.04,0,.05,0,0,.49-.27.59-.5Z"/>
        <path class="cls-1" d="M58.59,52.45c.21-.46.44-1,.22-1.15-.21-.15-.51.43-.66.47s-.17.24-.17.54.4.59.61.14Z"/>
        <path class="cls-1" d="M41.58,47.6c-.36.01-1.2.1-.75.35.13.08.28-.09.45-.04.17.05.25.09.4.04.15-.05.25-.36-.11-.35Z"/>
      </g>
      <g>
        <path class="cls-3" d="M14.8,51.65c-.08-.05-.17-.07-.26-.07-.18,0-.35.09-.45.26-.07.12-.09.26-.05.39.04.13.12.24.24.31s.26.09.39.05c.13-.04.24-.12.31-.24.14-.25.06-.56-.19-.7Z"/>
        <circle class="cls-3" cx="11.99" cy="47.71" r=".51"/>
        <path class="cls-3" d="M19.36,43.78c.12.07.26.09.39.05.13-.04.24-.12.31-.24s.09-.26.05-.39-.12-.24-.24-.31c-.08-.05-.17-.07-.26-.07-.04,0-.09,0-.13.02-.13.04-.24.12-.31.24-.14.25-.06.56.19.7Z"/>
        <path class="cls-3" d="M14.4,43.83c.13.04.27.02.39-.05.16-.09.27-.27.26-.46,0-.09-.02-.17-.07-.24-.07-.12-.18-.21-.31-.24-.05-.01-.09-.02-.14-.02-.09,0-.17.02-.25.07-.12.07-.21.18-.24.31-.04.13-.02.27.05.39.07.12.18.21.31.24Z"/>
        <path class="cls-3" d="M22.08,47.18c-.28,0-.51.23-.51.51s.23.51.51.51.51-.23.51-.51-.23-.51-.51-.51Z"/>
        <path class="cls-3" d="M19.88,51.67s-.02,0-.02-.01c-.01,0-.02-.02-.03-.02-.03-.01-.06-.02-.09-.03-.04-.01-.09-.02-.13-.02-.09,0-.18.02-.26.07-.25.14-.33.46-.19.7.07.12.18.2.31.24.13.04.27.02.39-.05s.2-.18.24-.31c.04-.13.02-.27-.05-.39-.04-.07-.1-.13-.17-.17Z"/>
        <path class="cls-3" d="M16.91,29.61L1,38.79v18.37l15.91,9.19,15.91-9.19v-18.37l-15.91-9.19ZM26.95,47.69c0,.33-.12.63-.32.86l.72,1.18c.1-.02.2-.04.31-.04.72,0,1.3.58,1.3,1.3s-.58,1.3-1.3,1.3-1.3-.58-1.3-1.3c0-.33.12-.63.32-.86l-.72-1.18c-.1.02-.2.04-.31.04-.58,0-1.07-.38-1.24-.91h-1.08c-.17.53-.66.91-1.24.91-.08,0-.15,0-.23-.02l-1.3,2.24c.06.07.12.14.17.23.17.3.22.65.13.99-.05.2-.16.39-.3.54l.54.94c.54-.12,1.12.12,1.41.62.05.09.09.19.12.28l1.38.03c.1-.3.3-.55.58-.71.3-.17.65-.22.99-.13.34.09.62.31.79.61.36.62.15,1.42-.48,1.78h0c-.2.12-.42.18-.65.18-.11,0-.23-.01-.34-.04-.34-.09-.62-.31-.79-.61-.05-.09-.09-.19-.12-.28l-1.38-.03c-.1.3-.3.55-.58.71-.2.12-.43.17-.65.17-.45,0-.89-.23-1.13-.65-.17-.3-.22-.65-.13-.99.05-.2.16-.39.3-.54l-.54-.94c-.09.02-.18.03-.28.03-.11,0-.23-.01-.34-.04-.34-.09-.62-.31-.79-.61-.05-.08-.08-.17-.11-.26h-2.58c-.03.09-.06.17-.11.26-.17.3-.45.52-.79.61-.11.03-.23.04-.34.04-.09,0-.19-.01-.28-.03l-.54.94c.14.15.24.34.3.54.09.34.04.69-.13.99-.05.09-.12.17-.19.25l.66,1.21c.31-.06.63-.01.9.15.3.17.52.45.61.79.09.34.04.69-.13.99-.24.42-.68.65-1.13.65-.22,0-.44-.06-.65-.17-.3-.17-.52-.45-.61-.79-.09-.34-.04-.69.13-.99.05-.09.12-.17.19-.25l-.66-1.21c-.08.02-.17.03-.25.03-.23,0-.45-.06-.65-.18-.28-.16-.48-.41-.58-.71l-1.38.03c-.03.1-.07.19-.12.28-.24.42-.68.65-1.13.65-.22,0-.44-.06-.65-.17-.62-.36-.84-1.16-.48-1.78.17-.3.45-.52.79-.61.34-.09.69-.04.99.13.28.16.48.41.58.71l1.38-.03c.03-.1.07-.19.12-.28.29-.5.87-.74,1.41-.62l.54-.94c-.14-.15-.24-.34-.3-.54-.09-.34-.04-.69.13-.99.05-.08.1-.15.16-.22l-1.3-2.25c-.09.02-.18.03-.28.03-.58,0-1.07-.38-1.24-.91h-1.08c-.17.53-.66.91-1.24.91-.72,0-1.3-.58-1.3-1.3s.58-1.3,1.3-1.3c.58,0,1.07.38,1.24.91h1.08c.17-.53.66-.91,1.24-.91.1,0,.19.01.28.03l1.29-2.24c-.06-.07-.12-.15-.16-.23-.17-.3-.21-.65-.12-.99.06-.2.16-.39.3-.54l-.53-.95c-.09.02-.17.03-.26.03-.46,0-.9-.24-1.14-.67-.05-.09-.09-.19-.12-.29l-1.38-.05c-.11.3-.31.54-.59.7-.2.11-.42.17-.63.17-.46,0-.9-.24-1.14-.67-.17-.3-.21-.66-.12-.99.09-.33.31-.61.62-.78.3-.17.66-.21.99-.12.33.09.61.31.78.62.05.09.09.19.12.29l1.38.05c.1-.29.3-.54.59-.7.28-.16.6-.2.9-.14l.68-1.2c-.07-.07-.13-.16-.18-.25-.35-.63-.13-1.42.5-1.77.3-.17.66-.21.99-.12.33.09.61.31.78.62.17.3.21.66.12.99s-.31.61-.62.78c-.2.11-.42.17-.63.17-.09,0-.18-.01-.27-.03l-.68,1.2c.07.07.13.16.18.25.17.3.21.66.12.99-.06.2-.16.39-.3.54l.53.94c.2-.04.41-.04.62.02.33.09.61.31.78.62.04.07.07.15.1.22h2.62c.03-.08.06-.16.11-.23.17-.3.45-.52.79-.61.2-.06.42-.06.62-.01l.54-.94c-.14-.15-.24-.34-.3-.54-.09-.34-.04-.69.13-.99.36-.62,1.16-.84,1.78-.48.62.36.84,1.16.48,1.78-.24.42-.68.65-1.13.65-.09,0-.18-.01-.28-.03l-.54.94c.14.15.24.34.3.54.09.34.04.69-.13.99-.05.08-.11.16-.17.23l1.27,2.19c.08-.01.16-.02.24-.02.58,0,1.07.38,1.24.91h1.08c.17-.53.66-.91,1.24-.91.11,0,.21.01.31.04l.72-1.18c-.2-.23-.32-.53-.32-.86,0-.72.58-1.3,1.3-1.3s1.3.58,1.3,1.3-.58,1.3-1.3,1.3c-.11,0-.21-.01-.31-.04l-.72,1.18c.2.23.32.53.32.85Z"/>
        <path class="cls-3" d="M21.15,46.79l-1.26-2.18c-.09.02-.18.03-.27.03-.23,0-.45-.06-.65-.18-.29-.17-.5-.44-.6-.76h-2.59c-.1.32-.31.59-.61.76-.2.11-.41.17-.63.17-.1,0-.2-.01-.3-.04l-1.29,2.23c.21.23.34.54.34.88s-.13.65-.34.88l1.3,2.25c.31-.07.65-.03.94.14.29.17.49.43.59.73h2.58c.09-.3.3-.56.59-.73.28-.16.61-.21.93-.14l1.28-2.22c-.23-.24-.38-.56-.38-.91s.14-.67.37-.9Z"/>
      </g>
      <g>
        <path class="cls-4" d="M37.25,10.3c.06-.16-.02-.26-.22-.34l-.25-.09-.17.45.25.09c.21.08.33.06.39-.11Z"/>
        <polygon class="cls-4" points="23.31 19.13 23.89 19.37 23.91 18.96 23.31 19.13 23.31 19.13"/>
        <path class="cls-4" d="M24.01,17.05c-.36-.08-.57.02-.65.4l-.04.17,1.09.25.04-.18c.08-.37-.05-.55-.44-.64Z"/>
        <path class="cls-4" d="M38.68,27.41s-.04-.06-.07-.08c-.02-.02-.05-.03-.07-.03s-.05,0-.08,0c-.03,0-.06.02-.09.04l-.13.08.24.37.13-.08s.06-.04.07-.06c.02-.02.03-.04.04-.07s0-.05,0-.08c0-.03-.02-.06-.05-.1Z"/>
        <path class="cls-4" d="M28.38,27.33l-.09-.06-.51.81.09.06c.05.03.1.06.15.06.05,0,.09,0,.13-.01s.09-.05.13-.09c.04-.04.09-.11.14-.18.05-.07.08-.14.1-.19.02-.06.03-.11.03-.15,0-.05-.02-.09-.04-.13-.03-.04-.07-.07-.12-.11Z"/>
        <path class="cls-4" d="M25.54,24.57s-.07.02-.11.03c-.04.01-.07.02-.11.03-.04.01-.08.02-.12.04l-.22.07.2.32.15-.17s.06-.07.09-.1c.03-.03.05-.06.08-.09s.05-.06.07-.08c.02-.03.05-.05.07-.08h0s-.07.02-.1.03Z"/>
        <path class="cls-4" d="M24.93,14.8c.31.19.6.18.74-.05.14-.23.04-.5-.27-.69-.31-.19-.59-.17-.73.06-.14.23-.05.49.26.69Z"/>
        <polygon class="cls-4" points="27.72 11.95 27.2 11.61 27.19 11.61 27.4 12.21 27.72 11.95"/>
        <path class="cls-4" d="M29.84,28.34s-.04.05-.05.07c-.02.02-.04.05-.07.09-.03.04-.05.07-.07.09l-.09.12.26.1.02-.15s0-.06.01-.11c0-.05.01-.08.01-.11s0-.06.01-.09,0-.06.02-.09h0s-.04.05-.05.08Z"/>
        <path class="cls-4" d="M33.36,1.15l-15.91,9.19v18.37l15.91,9.19,15.91-9.19V10.34L33.36,1.15ZM33.36,31.76c-6.75,0-12.23-5.49-12.23-12.23s5.49-12.23,12.23-12.23,12.23,5.49,12.23,12.23-5.49,12.23-12.23,12.23Z"/>
        <path class="cls-4" d="M35.04,10.62c.27.05.47-.15.54-.51.07-.36-.06-.61-.33-.66-.27-.05-.47.14-.54.5-.07.36.06.62.33.67Z"/>
        <path class="cls-4" d="M32.23,29.15s-.01-.08-.01-.11c0-.03,0-.06-.01-.09,0-.03,0-.06,0-.1h0s-.02.06-.03.09c-.01.03-.02.06-.03.08s-.03.06-.04.1c-.02.04-.03.08-.04.1l-.06.14.28.04-.02-.15s0-.06-.01-.11Z"/>
        <path class="cls-4" d="M33.36,8.08c-6.31,0-11.44,5.13-11.44,11.44s5.13,11.45,11.44,11.45,11.44-5.13,11.44-11.45-5.13-11.44-11.44-11.44ZM43.81,17.49c.09.43-.11.67-.4.81l-.18-.34c.19-.1.3-.21.26-.41-.05-.26-.3-.35-.66-.28-.36.07-.56.26-.51.52.04.2.19.28.43.29v.37c-.37-.01-.65-.17-.74-.6-.09-.45.13-.84.74-.96.6-.12.96.17,1.05.6ZM43.08,15.28l-.76,1.1h0s1.04-.41,1.04-.41l.13.33-1.62.66-.13-.33.76-1.13h0s-1.04.42-1.04.42l-.13-.33,1.62-.66.14.36ZM41.45,19.53c0,4.47-3.62,8.09-8.09,8.09s-8.09-3.62-8.09-8.09,3.62-8.09,8.09-8.09,8.09,3.62,8.09,8.09ZM42.72,14.52l-.27.17-.43-.68-.32.2.31.5-.26.16-.31-.5-.37.23.45.72-.26.17-.65-1.05,1.48-.93.63,1.01ZM41.55,12.83l.24.3-1.37,1.09-.24-.3,1.37-1.09ZM40.8,11.96c.32.31.29.61.13.89l-.34-.18c.1-.18.13-.34-.02-.48-.19-.18-.45-.12-.7.14-.26.27-.31.53-.12.72.15.14.31.12.52,0l.2.31c-.31.19-.63.23-.94-.08-.33-.32-.37-.76.06-1.21.42-.44.88-.41,1.2-.1ZM37.98,11.53l.34.02c-.03.21.06.4.22.51.15.1.29.12.37,0,.07-.11,0-.23-.15-.41-.21-.25-.43-.5-.23-.8.18-.27.51-.29.82-.08.3.2.38.47.37.69l-.34.02c0-.18-.08-.35-.22-.45-.13-.09-.25-.08-.31,0-.08.12,0,.23.15.41.21.24.42.51.22.8-.16.23-.48.32-.88.05-.31-.21-.41-.5-.37-.78ZM37.15,9.68c.4.15.59.39.45.75-.1.26-.27.35-.52.34l.11.8-.38-.14-.11-.75-.21-.08-.23.62-.35-.13.62-1.64.62.23ZM34.34,9.88c.11-.61.56-.82.98-.75.41.08.76.44.65,1.04-.11.61-.56.82-.97.75-.42-.08-.76-.44-.65-1.04ZM33.08,8.99l1.16.02v.32s-.78-.01-.78-.01v.43s.54,0,.54,0v.3s-.55,0-.55,0v.7s-.4,0-.4,0l.03-1.75ZM31.24,9.18c.35-.07.6.06.75.21l-.22.25c-.12-.13-.3-.19-.47-.16-.16.03-.23.12-.21.22.03.14.17.16.4.18.32.02.66.05.73.4.06.28-.1.56-.58.66-.37.08-.64-.05-.82-.27l.25-.23c.13.17.33.24.52.2.17-.04.29-.13.26-.26-.03-.13-.16-.16-.4-.18-.32-.02-.66-.04-.73-.4-.07-.32.15-.56.51-.64ZM30.24,9.45l.11.3-.75.29.13.35.55-.21.11.29-.55.21.15.41.79-.3.11.29-1.16.44-.62-1.64,1.12-.42ZM28.79,10.02l.16.28-.45.26.71,1.24-.34.19-.71-1.24-.45.26-.16-.28,1.24-.71ZM27.05,11.1l1.57,1.01-.31.24-.34-.23-.47.37.13.39-.28.22-.59-1.77.29-.23ZM25.6,12.38c.3-.33.6-.31.89-.15l-.17.34c-.19-.09-.35-.12-.48.03-.18.2-.11.45.16.7.27.25.54.3.72.1.14-.15.11-.31-.02-.52l.3-.21c.2.3.24.62-.06.94-.31.34-.75.39-1.21-.03-.45-.41-.43-.87-.13-1.2ZM24.4,13.95c.22-.36.69-.54,1.21-.21.52.33.56.82.33,1.18-.23.36-.69.54-1.21.22-.52-.33-.56-.82-.33-1.18ZM23.45,15.93l1.31.1h0s-1-.86-1-.86l.14-.33,1.4,1.22-.14.34-1.86-.11.15-.36ZM23.04,17.4c.12-.52.43-.86,1.05-.72.64.14.77.59.66,1.11l-.12.52-1.71-.39.12-.52ZM22.83,18.92l1.78-.54-.02.39-.4.11-.03.6.38.15-.02.35-1.73-.7.02-.37ZM23.37,20.82c.77.5-.35,1.48-.14,1.11.28-.51.16-.8.16-.8l-.21.81c-.36-.56.19-1.12.19-1.12ZM23.25,22.54c-.39.37.12-1.14,1.56-.62,0,0-.36.78-1.53.68l1.04-.56s-.55,0-1.07.5ZM23.37,22.95l.9.39s-.29-.36-.87-.44c-.44-.06.8-.5,1.2.7,0,0-.69.16-1.22-.65ZM24.79,25.49l.29-.32-.25-.38-.42.13-.08-.13,1.46-.43.08.13-1,1.15-.09-.14ZM25.23,26.08l-.1-.13,1.03-.81-.23-.3.12-.09.57.72-.12.09-.23-.3-1.03.81ZM25.87,26.82l1.04-1.03.21.21-1.04,1.03-.21-.21ZM26.89,27.75l.16-.79s.01-.05.01-.06c0-.02,0-.03.01-.05s0-.03.01-.05.01-.04.02-.07h0s-.59.71-.59.71l-.21-.17.94-1.12.24.2-.16.72s-.01.05-.02.07c0,.02,0,.04-.01.06,0,.02-.01.04-.02.06,0,.02-.01.05-.02.08h0s.58-.69.58-.69l.21.17-.94,1.12-.21-.18ZM28.44,28.34c-.08.06-.16.1-.24.12-.08.02-.16.01-.24-.01-.08-.02-.16-.06-.25-.12l-.32-.21.78-1.23.32.21c.09.06.16.11.21.18s.09.13.11.21c.02.08.02.17,0,.26-.02.1-.07.2-.15.32-.07.12-.15.21-.23.27ZM28.51,28.81l.67-1.3.27.14-.67,1.3-.27-.14ZM30.03,29.48l-.28-.11.04-.31-.37-.15-.19.25-.26-.1.94-1.2.27.11-.15,1.52ZM30.99,29.74l-.19-.78s-.01-.05-.01-.06c0-.02,0-.03-.01-.05,0-.02,0-.04-.01-.06,0-.02,0-.04-.01-.07h0s-.23.89-.23.89l-.26-.07.37-1.41.3.08.16.72s.01.05.02.07c0,.02,0,.04.01.06,0,.02,0,.04.01.06,0,.02,0,.05.01.08h0s.23-.88.23-.88l.26.07-.37,1.41-.27-.07ZM32.33,29.97l-.04-.31-.4-.05-.12.29-.28-.04.61-1.4.29.04.24,1.51-.3-.04ZM34.22,29.72c-.02.07-.04.12-.08.17-.04.05-.09.08-.15.11-.06.03-.14.04-.22.04s-.16,0-.23-.03c-.06-.02-.12-.05-.16-.1-.04-.04-.07-.1-.1-.16-.02-.06-.03-.14-.04-.22l-.03-.95h.3s.03.93.03.93c0,.05,0,.1.02.13,0,.04.02.07.04.09.02.02.04.04.07.05.03.01.06.02.1.01.04,0,.07,0,.09-.02.03-.01.05-.03.06-.06.02-.02.03-.06.03-.09,0-.04,0-.08,0-.13l-.03-.94h.29s.03.94.03.94c0,.09,0,.16-.02.23ZM35.32,29.85l-.49-.64s-.03-.04-.04-.05c-.01-.01-.02-.03-.03-.04-.01-.01-.02-.03-.03-.05-.01-.02-.02-.04-.04-.06h0s.15.91.15.91l-.27.04-.23-1.44.31-.05.44.59s.03.04.04.06c.01.02.02.03.03.05.01.02.02.03.04.05.01.02.03.04.04.07h0s-.15-.89-.15-.89l.27-.04.23,1.44-.27.04ZM35.91,29.72l-.37-1.41.29-.08.37,1.41-.29.08ZM36.8,29.46l-.88-1.24.28-.1.4.59s.04.06.06.09c.02.03.03.05.05.08.02.03.03.05.05.08.02.03.03.06.05.09h0s0-.07-.01-.1c0-.03,0-.06,0-.09,0-.03,0-.06-.01-.1,0-.04,0-.08-.01-.1l-.07-.71.26-.09.11,1.52-.27.1ZM37.67,29.12l-.65-1.31.75-.37.11.23-.48.24.15.3.35-.17.11.21-.35.17.17.35.51-.25.11.22-.77.38ZM39.23,28.24l-.5-.32-.12.07.29.45-.25.16-.79-1.23.38-.25c.07-.04.13-.07.19-.09.06-.02.12-.02.17-.02.06,0,.11.03.16.07.05.04.1.09.14.16.03.04.05.08.06.12.01.04.02.08.02.12s0,.08-.02.11c-.01.04-.03.07-.05.1l.57.36-.26.17ZM40.28,27.31c0,.06-.03.11-.06.17-.03.06-.08.11-.14.16-.05.04-.11.08-.16.1-.05.02-.11.04-.16.04-.05,0-.11,0-.16,0-.05-.01-.11-.03-.16-.05l.11-.25s.07.03.1.03c.03,0,.07.01.1.01.03,0,.06,0,.1-.02.03-.01.06-.03.09-.05.02-.02.04-.04.06-.06.01-.02.02-.04.03-.06,0-.02,0-.04,0-.06,0-.02-.02-.04-.03-.06-.02-.02-.04-.04-.06-.05-.02,0-.05-.01-.08-.01-.03,0-.06,0-.09.01-.03,0-.07.02-.11.03-.07.02-.13.04-.18.05-.05.01-.1.02-.15.01-.05,0-.1-.01-.16-.04s-.1-.06-.14-.12c-.04-.05-.06-.1-.08-.15-.01-.05-.02-.11,0-.16,0-.05.03-.11.06-.16.03-.05.07-.1.12-.14.05-.04.1-.07.14-.09.05-.02.1-.03.15-.04.05,0,.1,0,.15.01.05.01.1.03.15.05l-.1.25s-.06-.03-.09-.03c-.03,0-.06-.01-.09-.01-.03,0-.05,0-.08.01-.03,0-.05.02-.07.04-.02.02-.04.03-.05.05s-.02.04-.02.06c0,.02,0,.04,0,.06,0,.02.02.04.03.05.02.02.04.04.06.05.02,0,.05.01.08.01.03,0,.06,0,.09,0,.03,0,.07-.01.11-.03.08-.02.14-.04.19-.05.04-.01.09-.02.15-.02.05,0,.11.01.16.03.05.02.1.06.15.12.04.04.06.09.08.14.02.05.02.11.01.16ZM40.63,27.12l-1.02-1.04.21-.21,1.02,1.04-.21.21ZM41.96,25.56l-.47-.32-.89-.15.14.12-.23.26.92.78-.2.23-.92-.78-.23.26-.19-.16.65-.76h0s.15-.22.15-.22l.66.13h0s-.36-.56-.36-.56l.16-.24.5.84.47.32-.17.25ZM43.33,22.9c-.59.08-.87.44-.87.44l.9-.39c-.53.81-1.22.65-1.22.65.4-1.2,1.64-.76,1.2-.7ZM43.47,22.54c-.52-.49-1.07-.5-1.07-.5l1.04.56c-1.17.1-1.53-.68-1.53-.68,1.44-.52,1.95.99,1.56.62ZM43.54,21.94l-.21-.81s-.13.29.16.8c.21.38-.91-.61-.14-1.11,0,0,.56.56.19,1.12ZM43.65,19.03h-.38s.02.6.02.6h-.3s-.02-.57-.02-.57l-.43.02.03.85h-.31s-.04-1.22-.04-1.22l1.75-.06.04,1.19h-.32s-.03-.8-.03-.8Z"/>
        <path class="cls-4" d="M29.7,21.45h-2.61v-3.84h2.62v2.9h-1.63v-1.86s.94,0,.94,0v-.34h-1.24v2.46h1.92v.69ZM28.77,19.81h.24v-.48h-.24v.48Z"/>
        <g>
          <polygon class="cls-4" points="32.13 15.6 32.67 15.6 32.67 14.91 30.1 14.91 30.1 15.6 30.65 15.6 30.65 23.25 30.65 23.25 30.1 23.25 30.1 24.15 32.67 24.15 32.67 23.25 32.13 23.25 32.13 15.6"/>
          <polyline class="cls-4" points="34.54 17.6 34.54 15.6 35.03 15.6 35.03 14.91 32.61 14.91 32.61 15.6 33.14 15.6 33.16 15.61 33.16 17.61"/>
          <polyline class="cls-4" points="36.45 24.15 34.05 24.15 33.16 23.26 33.16 20.77 34.54 20.76 34.54 22.64 36.45 22.64"/>
          <rect class="cls-4" x="33.16" y="15.51" width="1.39" height="7.4"/>
          <g>
            <polyline class="cls-4" points="35.09 22.64 36.74 22.64 36.74 20.77 38.12 20.77 38.12 23.25 37.23 24.15 35.09 24.15"/>
            <polyline class="cls-4" points="38.12 17.61 38.12 15.6 38.67 15.6 38.67 14.91 36.25 14.91 36.25 15.6 36.74 15.6 36.74 17.61"/>
            <rect class="cls-4" x="36.74" y="15.21" width="1.39" height="7.66"/>
          </g>
        </g>
      </g>
    </g>
  </g>
</svg>